<?xml version="1.0" encoding="utf-8"?>
<!-- Generator: Adobe Illustrator 28.0.0, SVG Export Plug-In . SVG Version: 6.00 Build 0)  -->
<svg version="1.1" id="Layer_1" xmlns="http://www.w3.org/2000/svg" xmlns:xlink="http://www.w3.org/1999/xlink" x="0px" y="0px"
	 viewBox="0 0 792 612" style="enable-background:new 0 0 792 612;" xml:space="preserve">
<style type="text/css">
	.st0{fill:#58595B;}
	.st1{fill:#009344;}
</style>
<g id="CKQ93X.tif">
	<g>
		<path class="st0" d="M592.48,17.6c0.43,5.17,0.92,10.01,1.22,14.86c1.47,23.25,2.93,46.49,4.26,69.75
			c0.16,2.86,1.02,4.15,3.98,3.83c1.62-0.17,3.28-0.03,5.19-0.03c0.65-8.88,1.33-17.24,1.85-25.6c1.21-19.33,2.36-38.66,3.47-58
			c0.14-2.39,0.92-3.66,3.52-3.53c2.51,0.13,5.03,0.03,7.94,0.03c0.64,8.38,1.36,16.44,1.84,24.52c0.67,11.45,1.1,22.91,1.74,34.36
			c0.48,8.61,1.17,17.22,1.62,25.83c0.12,2.23,0.76,3.46,3.17,3.37c1.94-0.07,3.89-0.01,6.3-0.01c0.51-7.23,1.11-14.18,1.46-21.14
			c0.99-19.92,1.87-39.84,2.8-59.76c0.04-0.84,0.09-1.68,0.08-2.53c-0.05-4.01,1.68-5.38,5.87-5.42c4.33-0.04,5.11,2.12,5.67,5.47
			c4.69,28.12,4.59,56.48,4.16,84.84c-0.26,17.54-4.22,34.5-9.4,51.14c-6.1,19.62-8.64,39.65-8.54,60.14
			c0.19,40.33,0.21,80.66,0.24,120.99c0,4.06-0.26,8.15-0.69,12.19c-0.89,8.3-5.11,14.55-12.56,18.24
			c-8.66,4.29-17.18,3.32-25.08-2.09c-5.2-3.56-6.96-8.99-6.98-15.04c-0.05-13.35,0.25-26.71-0.07-40.05
			c-0.75-31.88-1.55-63.76-2.78-95.62c-0.8-20.67-4.6-40.84-11.43-60.49c-5.63-16.2-7.39-33.02-6.19-50.19
			c1.9-27.15,3.55-54.31,5.22-81.48c0.23-3.72,1.76-6.09,5.41-6.97C587.93,18.69,590.07,18.18,592.48,17.6z"/>
		<path d="M496.84,275.98c0-20.23,0-39.7,0-59.43c12.93,0,25.51,0,38.43,0c0,58.18,0,116.42,0,175.01c-12.49,0-25.18,0-38.24,0
			c0-2.35,0-4.81,0-7.83c-1.19,0.65-1.92,0.94-2.53,1.39c-31.59,22.75-70.03,9.95-81.19-27.32c-5.84-19.51-5.63-39.12,2.32-58.11
			c14.48-34.6,52.47-38.78,76.75-26.08C493.61,274.23,494.82,274.89,496.84,275.98z M496.8,331.03c0-5.47,0.07-10.94-0.05-16.41
			c-0.03-1.3-0.3-2.95-1.12-3.81c-10.58-11.17-30.43-11.81-39.46,0.14c-7.94,10.51-7.77,31.7,0.49,42.01
			c7.47,9.32,20.55,11.07,31.96,4.52c5.63-3.23,9.19-7.19,8.28-14.27C496.38,339.22,496.8,335.09,496.8,331.03z"/>
		<path d="M433.77,73.93c0-20.3,0-39.78,0-59.53c12.92,0,25.49,0,38.39,0c0,58.21,0,116.44,0,175.02c-12.48,0-25.01,0-37.86,0
			c0-2.47,0-4.81,0-7.75c-1.27,0.64-2.15,0.91-2.82,1.44c-23.17,18.67-67.4,16.4-80.76-26.36c-6.18-19.77-6.01-39.6,1.92-58.92
			c9.18-22.35,29.99-34.53,54.11-32.56C416.14,66.04,424.88,68.51,433.77,73.93z M433.72,129.03c0-4.63-0.44-9.32,0.12-13.88
			c0.62-5.06-1.83-7.76-5.59-10.23c-16.5-10.87-35.99-3.48-39.83,15.46c-0.98,4.85-0.85,10.06-0.42,15.03
			c0.88,10.11,5.01,18.56,15.16,22.27c10.31,3.77,19.67,1.16,27.51-6.25c1.67-1.58,2.71-4.46,2.91-6.84
			C434.02,139.44,433.72,134.23,433.72,129.03z"/>
		<path class="st1" d="M5.39,545.27c8.64,8.03,17.8,12.98,28.08,15.78c9.7,2.64,19.48,3.76,29.38,0.88c5.15-1.5,8.13-4.9,8.78-10.14
			c0.6-4.91-1.42-9.17-5.55-11.47c-7.8-4.35-15.9-8.19-24.01-11.96C31.8,523.59,21.9,518.42,15,509.02
			c-7.24-9.87-9.33-21.02-8.32-33.03c1.04-12.33,5.15-23.18,14.22-31.89c8.15-7.82,18.24-11.62,29.12-12.91
			c15.64-1.87,31.04-0.42,45.78,5.65c10.17,4.19,10.16,4.19,10.16,15.2c0,9.69,0,19.37,0,29.66c-1.18-0.68-2.02-1-2.66-1.55
			c-10.26-8.84-21.93-14.65-35.54-15.57c-4.49-0.3-9.34,0.29-13.57,1.77c-9.16,3.2-10.77,14.93-2.62,20.49
			c6.3,4.29,13.44,7.41,20.39,10.68c9.28,4.38,18.58,8.61,26.09,15.88c10.19,9.86,13.52,22.11,13.31,35.89
			c-0.37,25.24-18.68,44.06-44.88,47.32c-19.12,2.38-37.74,0.7-55.47-7.62c-4.14-1.94-6-4.33-5.78-9.28
			C5.72,568.64,5.39,557.55,5.39,545.27z"/>
		<path d="M262.36,331.63c0.18-22.55,7.25-42.19,27.37-54.04c25.03-14.74,51.24-14.78,76.42-0.18
			c18.32,10.62,26.15,28.24,27.67,48.82c0.74,10.01-0.18,19.95-3.64,29.45c-8.54,23.44-26.01,35.81-50.08,39.53
			c-14.42,2.23-28.61,1.04-42.07-4.93c-20.23-8.97-31.41-24.89-34.88-46.5c-0.33-2.08-0.63-4.17-0.76-6.26
			C262.26,335.57,262.36,333.59,262.36,331.63z M302.39,330.26c0.56,4.69,0.77,7.92,1.36,11.08c2.36,12.49,11.27,20.63,22.85,21.01
			c12.61,0.42,21.84-6.5,25.29-19.09c2.4-8.77,2.13-17.47-0.96-26.06c-3.62-10.08-11.85-16.12-22.25-16.29
			c-10.68-0.17-19.59,5.54-23.16,15.6C303.8,321.32,303.21,326.53,302.39,330.26z"/>
		<path d="M247.34,325.04c-0.06,26.88-6.33,44.59-22.85,57.52c-22.65,17.73-60.96,18.48-84.17,1.47
			c-20.41-14.95-26.37-36.2-24.24-60.24c0.61-6.87,2.33-13.93,5.02-20.27c9.01-21.33,26.18-32.14,48.52-35.52
			c13.13-1.98,26.07-0.95,38.56,3.65C232.94,280.78,247.85,303.5,247.34,325.04z M206.78,330.31c-0.2-1.71-0.38-5.09-1.02-8.37
			c-2.35-12.09-10.79-20.03-22.09-20.97c-11.15-0.94-21,5.05-24.87,15.59c-3.87,10.54-3.84,21.24,0.6,31.61
			c6.89,16.1,28.53,19.27,40.14,6.09C205.2,347.85,206.6,340.13,206.78,330.31z"/>
		<path class="st1" d="M342.08,525.35c2.69-10.54-1.71-19.19-11.92-22.31c-18.75-5.74-35.62-1.24-50.94,10.36
			c-0.44,0.34-0.84,0.74-1.27,1.1c-0.1,0.08-0.26,0.1-1.05,0.37c0-4.03,0-7.87,0-11.7c0-6.18,0.12-12.37-0.05-18.54
			c-0.07-2.6,0.82-4.04,3.17-5.2c16.68-8.25,34.23-10.94,52.67-9.05c10.52,1.08,20.36,3.85,29.08,9.94
			c11.36,7.93,17.62,19.3,18.14,32.71c1,25.66,0.73,51.38,1.06,77.07c0.03,2.37-0.82,3.23-3.18,3.22
			c-10.26-0.07-20.52-0.08-30.77,0.01c-2.51,0.02-3.67-0.77-3.42-3.39c0.12-1.22-0.1-2.47-0.2-4.46c-1.81,1.24-3.17,2.11-4.46,3.05
			c-16.38,11.98-41.71,12.3-55.83,0.41c-13.02-10.96-15.99-25.22-12.16-41.12c3.76-15.61,14.94-23.63,29.95-26.47
			c13-2.46,25.96-1.73,38.45,3.27C340.21,524.96,341.16,525.11,342.08,525.35z M323.94,545.06c-0.07,0.3-0.13,0.61-0.2,0.91
			c-2.1,0-4.22-0.17-6.3,0.03c-6.34,0.6-10.69,4.73-11.22,10.46c-0.48,5.21,3.36,10.08,9.03,12.09c5.56,1.97,10.95,1.38,16.41-0.15
			c8.4-2.36,11.25-6.33,11.18-14.95c-0.02-2.53-0.94-4.12-3.19-4.7C334.45,547.41,329.18,546.28,323.94,545.06z"/>
		<path d="M323.13,189.56c-12.85,0-25.3,0-38.29,0c-0.09-1.7-0.24-3.31-0.24-4.92c-0.02-20.52,0.02-41.03-0.05-61.55
			c-0.01-3.07-0.05-6.25-0.8-9.19c-2.92-11.46-14.52-16.72-27.35-12.53c-2.11,0.69-4.16,1.7-6.09,2.82
			c-5.01,2.89-7.74,6.53-7.59,13.12c0.51,22.47,0.2,44.96,0.2,67.44c0,1.51,0,3.02,0,4.77c-13,0-25.6,0-38.52,0
			c0-39.93,0-79.88,0-120.32c7.37,0,14.64,0,21.91,0c3.79,0,7.62,0.28,11.38-0.08c4.06-0.38,5.31,1.25,4.81,5
			c-0.14,1.04,0.12,2.14,0.23,3.73c1.55-1.13,2.64-1.94,3.75-2.72c16.83-11.77,34.91-13.22,53.54-5.47
			c14.74,6.14,22.61,18.18,22.94,33.86C323.56,132.03,323.13,160.54,323.13,189.56z"/>
		<path class="st1" d="M170.91,540.94c0.95,8.57,4.87,14.58,11.22,19.01c9.9,6.9,21.18,7.67,32.67,6.39
			c11.51-1.28,21.9-5.44,31.18-14.41c0,7.87,0,14.68,0,21.49c0,0.98,0,1.97,0,2.95c0,11.16,0.19,11.74-10.35,15.2
			c-25.92,8.51-51.84,10-76.35-4.38c-15.88-9.32-24.22-24.07-26.62-42.22c-2.26-17.13-0.46-33.63,8.56-48.7
			c9.11-15.22,23.02-23.25,40.41-25.68c17.5-2.45,33.92,0.2,48.31,10.93c13.11,9.78,19.97,23.22,21.12,39.48
			c0.37,5.27-0.16,10.59,0.12,15.87c0.19,3.57-1.38,4.14-4.47,4.13c-23.32-0.1-46.65-0.05-69.98-0.05
			C174.95,540.94,173.17,540.94,170.91,540.94z M171.06,514.15c14.25,0,28.22,0,42.15,0c0.97-8.87-6.72-17.84-18.81-18.67
			C182.32,494.64,171.36,502.35,171.06,514.15z"/>
		<path class="st1" d="M695.47,540.94c0.65,11.66,9.6,21.22,22.14,24.09c19.05,4.36,36.37,0.79,51.98-12.11
			c0.1,1.54,0.25,2.72,0.25,3.9c0.02,7.59-0.46,15.22,0.16,22.75c0.48,5.9-1.6,9-6.99,10.91c-26.25,9.34-52.43,11.34-77.75-2.31
			c-18.25-9.84-26.86-26.39-28.76-46.66c-1.1-11.7-0.23-23.24,3.84-34.35c7.9-21.56,23.49-33.53,46.12-36.62
			c18.49-2.53,35.56,0.79,50.19,12.87c10.49,8.65,16.52,20.07,18.2,33.54c0.74,5.96,0.71,12.02,0.82,18.04
			c0.1,5.93-0.02,5.94-5.78,5.94c-23.05,0-46.11,0-69.16,0C699.08,540.94,697.43,540.94,695.47,540.94z M737.65,514.08
			c-0.1-10.72-8.45-18.39-19.92-18.68c-12.23-0.31-21.71,7.4-22.53,18.68C709.37,514.08,723.51,514.08,737.65,514.08z"/>
		<path class="st0" d="M741.53,155.86c-4.36,0-8.73-0.25-13.06,0.07c-5,0.37-8.54-1.69-11.76-5.25
			c-9.25-10.23-13.54-22.77-16.95-35.71c-6.73-25.52-5.24-50.28,7.06-74.02c5.86-11.3,14.77-19.33,26.17-24.66
			c7.07-3.3,14.07-3.01,20.96,0.89c18.32,10.37,27.57,26.91,32.1,46.73c7.56,33.06-0.84,62.16-21.77,88.19
			c-2.12,2.64-4.6,3.95-7.99,3.71c-1.68-0.12-3.37,0.03-5.06,0.04C747.99,155.86,744.76,155.85,741.53,155.86z"/>
		<path d="M12.13,232.28c30.6,0,60.9,0,91.42,0c0,12.42,0,24.6,0,37.29c-16.74,0-33.51,0-50.67,0c0,10.09,0,19.67,0,29.73
			c16.06,0,32,0,48.21,0c0,12.76,0,25.04,0,37.76c-16.05,0-32.01,0-48.38,0c0,18.34,0,36.27,0,54.53c-13.69,0-26.97,0-40.58,0
			C12.13,338.69,12.13,285.65,12.13,232.28z"/>
		<path d="M12.05,30.29c30.64,0,60.95,0,91.48,0c0,12.48,0,24.78,0,37.55c-16.88,0-33.67,0-50.74,0c0,9.95,0,19.43,0,29.4
			c16.04,0,31.98,0,48.25,0c0,12.75,0,25.03,0,37.95c-1.49,0-2.98,0-4.47,0c-13.35,0-26.7,0.09-40.05-0.06
			c-3.11-0.03-4.11,0.84-4.08,4.03c0.15,15.17,0.07,30.35,0.07,45.52c0,1.51,0,3.02,0,4.81c-13.68,0-26.95,0-40.46,0
			C12.05,136.47,12.05,83.57,12.05,30.29z"/>
		<path class="st0" d="M721.29,263.03c0-30.32,0-60.64,0-90.96c0-6,0.64-6.66,6.55-6.67c8.85-0.02,17.71,0.08,26.56-0.05
			c3.61-0.05,5.98,1.09,6.53,5.07c0.55,3.98,1.67,7.94,1.71,11.92c0.24,22.48,0.25,44.97,0.32,67.46
			c0.11,31.91,0.28,63.81,0.23,95.72c-0.01,4.87-0.73,9.84-1.79,14.6c-1.87,8.36-7.85,11.95-19.01,11.93
			c-2.66,0-5.34-0.19-7.98-0.58c-7.16-1.05-12.1-6.96-12.28-15.33c-0.42-19.57-0.63-39.15-0.82-58.73
			C721.2,285.95,721.29,274.49,721.29,263.03z"/>
		<path class="st1" d="M416.17,507.17c-4.68,0-8.84,0-13.95,0c2.56-6.16,4.8-11.62,7.1-17.06c1.95-4.64,4.06-9.21,5.89-13.89
			c0.64-1.64,0.91-3.52,0.93-5.29c0.09-9.41,0.2-18.83-0.04-28.23c-0.09-3.49,1.17-4.26,4.36-4.2c9.97,0.16,19.95,0.18,29.93-0.01
			c3.22-0.06,4.07,1.04,4.01,4.13c-0.18,9.27,0.02,18.54-0.11,27.81c-0.04,2.77,0.92,3.68,3.64,3.62
			c6.46-0.14,12.93,0.03,19.39-0.07c2.33-0.04,3.25,0.75,3.23,3.15c-0.09,8.99-0.1,17.98,0,26.97c0.03,2.48-1.04,3.1-3.3,3.07
			c-7.42-0.09-14.84-0.03-22.91-0.03c0,2.01,0,3.63,0,5.26c0,25.43-0.08,50.85,0.09,76.28c0.02,3.77-1.09,4.79-4.76,4.7
			c-9.69-0.23-19.39-0.22-29.08-0.01c-3.54,0.08-4.49-1.07-4.47-4.54c0.13-25.29,0.07-50.57,0.07-75.86
			C416.17,511.27,416.17,509.59,416.17,507.17z"/>
		<path class="st1" d="M491.95,507.12c4.26-10.1,8.36-19.41,12.08-28.86c1.25-3.17,2.06-6.69,2.18-10.08
			c0.31-8.28,0.25-16.58,0.03-24.87c-0.1-3.53,0.69-4.98,4.61-4.86c9.55,0.29,19.12,0.21,28.67,0.03c3.25-0.06,4.42,0.82,4.34,4.24
			c-0.23,9.13,0.01,18.27-0.12,27.4c-0.04,2.91,0.92,3.99,3.88,3.92c6.32-0.16,12.65,0.04,18.97-0.08c2.5-0.05,3.54,0.74,3.51,3.35
			c-0.1,8.85-0.1,17.71,0,26.56c0.03,2.66-1.1,3.34-3.56,3.3c-6.18-0.12-12.38,0.14-18.55-0.11c-3.4-0.14-4.29,1.06-4.28,4.32
			c0.11,25.44,0.06,50.87,0.06,76.31c0,5.58-0.01,5.59-5.39,5.6c-9.28,0.01-18.56-0.12-27.83,0.07c-3.32,0.07-4.32-0.98-4.31-4.31
			c0.12-25.44,0.07-50.87,0.06-76.31c0-5.59-0.02-5.59-5.46-5.6C498.2,507.12,495.55,507.12,491.95,507.12z"/>
		<path class="st1" d="M631.5,506.21c0,27.38-0.07,54.77,0.08,82.15c0.02,3.8-0.91,5.13-4.88,5.01c-9.54-0.27-19.1-0.2-28.65-0.03
			c-3.15,0.06-4.09-0.97-4.08-4.1c0.08-55.61,0.08-111.22,0-166.83c0-3.09,0.84-4.16,4.04-4.1c9.69,0.19,19.39,0.21,29.07-0.01
			c3.52-0.08,4.51,0.99,4.49,4.49C631.44,450.6,631.5,478.4,631.5,506.21z"/>
		<path d="M131.09,189.45c-0.08-1.65-0.19-3.02-0.19-4.39c-0.01-36.93,0.06-73.87-0.1-110.8c-0.02-4.11,1.16-5.27,5.2-5.15
			c9.68,0.27,19.38,0.08,29.07,0.1c1.37,0,2.75,0.12,4.34,0.19c0,40.11,0,79.92,0,120.06C156.67,189.45,144.01,189.45,131.09,189.45
			z"/>
		<path d="M170.5,14.48c0,10.55,0,20.77,0,31.33c-13.44,0-26.78,0-40.35,0c0-10.35,0-20.67,0-31.33
			C143.4,14.48,156.75,14.48,170.5,14.48z"/>
	</g>
</g>
</svg>
