<?xml version="1.0" encoding="utf-8"?>
<!-- Generator: Adobe Illustrator 28.0.0, SVG Export Plug-In . SVG Version: 6.00 Build 0)  -->
<svg version="1.1" id="Layer_1" xmlns="http://www.w3.org/2000/svg" xmlns:xlink="http://www.w3.org/1999/xlink" x="0px" y="0px"
	 viewBox="0 0 100 100" style="enable-background:new 0 0 100 100;" xml:space="preserve">
<style type="text/css">
	.st0{fill:#168754;stroke:#000000;stroke-width:3;stroke-miterlimit:10;}
	.st1{fill:#FFFFFF;}
	.st2{font-family:'Arial-Black';}
	.st3{font-size:18.1352px;}
</style>
<rect x="1.44" y="1.44" class="st0" width="97.11" height="97.11"/>
<text transform="matrix(0.9489 0 0 1 6.9155 46.6304)"><tspan x="0" y="0" class="st1 st2 st3">FIND</tspan><tspan x="0" y="21.76" class="st1 st2 st3">FOOD</tspan><tspan x="0" y="43.52" class="st1 st2 st3">SEATTLE</tspan></text>
<g id="Zk1ffL_00000053520879614894678030000014506015071151604654_">
	<g>
		<path d="M68.89,20.68c-0.07-0.04-0.14-0.07-0.2-0.11c-2.36-1.6-3.61-3.9-4.15-6.64c-0.41-2.08-0.41-4.17,0-6.36
			c0.94,0.1,1.86,0.17,2.77,0.31c1.82,0.28,3.56,0.85,5.17,1.76c2.57,1.45,4.1,3.67,4.8,6.5c0.02,0.06,0.04,0.13,0.06,0.19
			c0,0.01,0.02,0.02,0.06,0.05c0.06-0.08,0.12-0.16,0.16-0.24c0.73-1.31,1.63-2.48,2.71-3.5c0.22-0.21,0.52-0.4,0.82-0.47
			c0.58-0.14,1.11,0.15,1.36,0.64c0.25,0.47,0.14,1.12-0.27,1.52c-0.9,0.87-1.68,1.83-2.3,2.91c-0.7,1.23-1.18,2.54-1.44,3.92
			c-0.01,0.08,0,0.16,0,0.22c0.79-0.18,1.57-0.41,2.36-0.52c2.79-0.37,5.46-0.02,7.89,1.52c2.15,1.37,3.42,3.37,3.8,5.85
			c0.86,5.7-0.54,10.87-3.95,15.5c-1.08,1.47-2.42,2.7-3.84,3.86c-1.52,1.23-3.2,1.42-4.99,0.93c-0.88-0.24-1.73-0.6-2.56-0.98
			c-0.58-0.27-1.08-0.29-1.65,0c-1.22,0.64-2.5,1.13-3.9,1.21c-1.28,0.08-2.42-0.25-3.45-1.02c-4.19-3.16-6.8-7.32-7.84-12.46
			c-0.44-2.15-0.59-4.33-0.26-6.51c0.63-4.21,3.3-6.96,7.49-7.77c0.43-0.08,0.86-0.14,1.3-0.22C68.85,20.74,68.87,20.71,68.89,20.68
			z M75.18,24.26c-0.05-0.05-0.06-0.08-0.08-0.09c-2.16-1.14-4.44-1.61-6.88-1.18c-2.81,0.49-5.38,2.21-6.02,5.67
			c-0.37,1.98-0.28,3.95,0.11,5.9c0.88,4.41,3,8.09,6.43,11.02c1.27,1.08,2.66,1.36,4.21,0.71c0.42-0.18,0.85-0.34,1.26-0.54
			c1.45-0.7,2.9-0.75,4.34,0.02c0.36,0.19,0.74,0.33,1.11,0.49c1.47,0.64,2.83,0.43,4.12-0.49c1.2-0.86,2.13-1.98,2.98-3.16
			c2.89-4.05,4.29-8.5,3.72-13.5c-0.26-2.24-1.28-4.02-3.29-5.13c-2.65-1.46-5.39-1.48-8.2-0.47c-0.49,0.18-0.81,0.46-1.09,0.92
			c-1.42,2.35-3.57,3.33-6.27,3.17c-0.55-0.03-0.99-0.46-1.06-0.95c-0.07-0.57,0.19-1.06,0.7-1.22c0.22-0.07,0.48-0.07,0.71-0.06
			C73.19,25.39,74.26,25.08,75.18,24.26z M66.22,9.61c-0.1,3.06,0.18,5.88,2.23,8.17c1.92,2.14,4.51,2.85,7.28,3.27
			c0.01-0.27,0.04-0.47,0.03-0.67c-0.05-0.9-0.04-1.81-0.17-2.7c-0.31-2.14-1.11-4.04-2.81-5.47c-1.1-0.93-2.37-1.54-3.74-1.94
			C68.14,10.01,67.22,9.84,66.22,9.61z"/>
		<path d="M89.44,31.27c-0.02,0.2-0.03,0.55-0.09,0.89c-0.09,0.45-0.5,0.73-0.92,0.66c-0.47-0.07-0.78-0.47-0.73-0.95
			c0.22-2.12-0.42-3.92-1.95-5.42c-0.38-0.37-0.4-0.85-0.05-1.22c0.33-0.35,0.85-0.37,1.22-0.01C88.59,26.84,89.4,28.81,89.44,31.27
			z"/>
		<path d="M88.17,35.79c-0.55-0.02-0.98-0.48-0.95-1.03c0.03-0.55,0.48-0.96,1.05-0.93c0.54,0.02,0.94,0.46,0.93,1.01
			C89.17,35.41,88.74,35.81,88.17,35.79z"/>
	</g>
</g>
</svg>
