<?xml version="1.0" encoding="utf-8"?>
<!-- Generator: Adobe Illustrator 28.0.0, SVG Export Plug-In . SVG Version: 6.00 Build 0)  -->
<svg version="1.1" id="Layer_1" xmlns="http://www.w3.org/2000/svg" xmlns:xlink="http://www.w3.org/1999/xlink" x="0px" y="0px"
	 viewBox="0 0 792 612" style="enable-background:new 0 0 792 612;" xml:space="preserve">
<style type="text/css">
	.st0{font-family:'YsansStd-ExtraBold';}
	.st1{font-size:234.1724px;}
	.st2{fill:#009344;}
	.st3{fill:#414042;}
</style>
<text transform="matrix(1 0 0 1 -10.1665 201.246)"><tspan x="0" y="0" class="st0 st1">Find</tspan><tspan x="0" y="202.41" class="st0 st1">Food</tspan><tspan x="0" y="404.81" class="st2 st0 st1">Seattle</tspan></text>
<g id="YdJq8F.tif">
	<g>
		<path class="st3" d="M591.35,29.03c1.94,29.56,3.85,58.83,5.79,88.36c3.05,0,5.81,0,9.03,0c1.87-29,3.75-58,5.63-87.21
			c3.73,0,7.19,0,11.09,0c1.91,29.5,3.81,58.88,5.73,88.45c3.05,0,5.82,0,9.05,0c0.62-10.65,1.28-21.03,1.81-31.42
			c0.92-17.94,1.78-35.89,2.65-53.84c0.1-2.07,0.19-4.29,3.15-3.77c2.77,0.49,6.98-1.98,7.63,3.3c1.5,12.18,3.66,24.33,4.23,36.56
			c0.75,16.38,0.28,32.82,0.28,49.24c0.01,18.58-4.5,36.37-9.82,53.95c-5.7,18.83-8.27,37.94-8.08,57.65
			c0.38,40.49,0.11,80.98,0.09,121.48c0,3.68,0.05,7.37-0.17,11.04c-1.13,18.98-21.11,28.97-37.24,18.61
			c-5.53-3.55-7.57-9.13-7.64-15.29c-0.16-14.72,0.32-29.44,0.01-44.16c-0.54-25.32-1.5-50.63-2.25-75.95
			c-0.53-17.96-1.43-35.9-5.46-53.49c-1.51-6.59-3.16-13.21-5.48-19.54c-6.44-17.57-8.45-35.79-7.54-54.24
			c1.18-23.86,3.31-47.68,5-71.52c0.2-2.82,0.31-5.65,0.37-8.48c0.11-5.62,1.22-7.14,6.63-8.62
			C587.44,29.71,589.1,29.48,591.35,29.03z"/>
		<path class="st3" d="M740.77,167.41c-4.81,0-9.64-0.26-14.42,0.08c-3.78,0.27-6.41-1.15-8.96-3.69
			c-9.8-9.74-14.35-22.17-17.98-35.02c-7.5-26.62-6.28-52.53,6.89-77.31c5.71-10.74,14.41-18.36,25.26-23.65
			c7.42-3.61,14.63-3.33,21.81,0.83c14.97,8.68,24.33,21.88,29.37,37.98c11.46,36.61,3.42,69.39-20.78,98.58
			c-0.99,1.19-3.05,2.02-4.65,2.09C751.81,167.57,746.28,167.41,740.77,167.41z"/>
		<path class="st3" d="M762.41,277.41c0,25.77,0.08,51.54-0.07,77.3c-0.03,5.34-0.48,10.76-1.49,16
			c-1.39,7.19-5.95,12.07-13.36,12.89c-5.1,0.56-10.48,0.44-15.48-0.58c-6.44-1.31-10.43-7.26-10.93-14.55
			c-0.31-4.52-0.53-9.05-0.54-13.58c-0.04-55.08-0.03-110.15-0.04-165.23c0-5.96,0.01-5.96,6.13-5.96c9.48,0,18.96,0.08,28.44-0.06
			c2.35-0.04,3.81,0.61,4.36,2.88c0.86,3.53,2.35,7.07,2.38,10.61c0.2,26.76,0.11,53.52,0.11,80.27
			C762.1,277.41,762.26,277.41,762.41,277.41z"/>
	</g>
</g>
</svg>
